<svg width="211" height="74" viewBox="0 0 211 74" fill="none" xmlns="http://www.w3.org/2000/svg">
<path fill-rule="evenodd" clip-rule="evenodd" d="M0 33.6V0H5.136L23.664 22.7485V0H29.856V33.6H24.72L6.192 10.8515V33.6H0ZM50.3314 33.936C47.4834 33.936 44.9874 33.376 42.8434 32.256C40.7314 31.104 39.0834 29.536 37.8994 27.552C36.7474 25.568 36.1714 23.312 36.1714 20.784C36.1714 18.224 36.7314 15.968 37.8514 14.016C39.0034 12.032 40.5714 10.48 42.5554 9.36C44.5714 8.24 46.8594 7.68 49.4194 7.68C51.9154 7.68 54.1394 8.224 56.0914 9.312C58.0434 10.4 59.5794 11.936 60.6994 13.92C61.8194 15.904 62.3794 18.24 62.3794 20.928C62.3794 21.184 62.3634 21.472 62.3314 21.792C62.3314 22.112 62.3154 22.416 62.2834 22.704H42.1718C42.3359 23.5899 42.6397 24.4059 43.0834 25.152C43.7874 26.336 44.7794 27.248 46.0594 27.888C47.3394 28.528 48.8114 28.848 50.4754 28.848C51.9154 28.848 53.2114 28.624 54.3634 28.176C55.5154 27.728 56.5394 27.024 57.4354 26.064L60.6514 29.76C59.4994 31.104 58.0434 32.144 56.2834 32.88C54.5554 33.584 52.5714 33.936 50.3314 33.936ZM42.9394 16.128C42.5232 16.8946 42.2495 17.7586 42.1182 18.72H56.705C56.5885 17.752 56.3039 16.872 55.8514 16.08C55.2114 14.96 54.3314 14.08 53.2114 13.44C52.1234 12.8 50.8594 12.48 49.4194 12.48C47.9474 12.48 46.6514 12.8 45.5314 13.44C44.4434 14.08 43.5794 14.976 42.9394 16.128ZM82.022 33.936C79.398 33.936 77.062 33.376 75.014 32.256C72.966 31.104 71.35 29.536 70.166 27.552C68.982 25.568 68.39 23.312 68.39 20.784C68.39 18.224 68.982 15.968 70.166 14.016C71.35 12.032 72.966 10.48 75.014 9.36C77.062 8.24 79.398 7.68 82.022 7.68C84.678 7.68 87.03 8.24 89.078 9.36C91.158 10.48 92.774 12.016 93.926 13.968C95.11 15.92 95.702 18.192 95.702 20.784C95.702 23.312 95.11 25.568 93.926 27.552C92.774 29.536 91.158 31.104 89.078 32.256C87.03 33.376 84.678 33.936 82.022 33.936ZM82.022 28.8C83.494 28.8 84.806 28.48 85.958 27.84C87.11 27.2 88.006 26.272 88.646 25.056C89.318 23.84 89.654 22.416 89.654 20.784C89.654 19.12 89.318 17.696 88.646 16.512C88.006 15.296 87.11 14.368 85.958 13.728C84.806 13.088 83.51 12.768 82.07 12.768C80.598 12.768 79.286 13.088 78.134 13.728C77.014 14.368 76.118 15.296 75.446 16.512C74.774 17.696 74.438 19.12 74.438 20.784C74.438 22.416 74.774 23.84 75.446 25.056C76.118 26.272 77.014 27.2 78.134 27.84C79.286 28.48 80.582 28.8 82.022 28.8ZM75.1854 37.25H80.4504V65.6H75.1854V53.45H60.5244V65.6H55.2594V37.25H60.5244V48.9545H75.1854V37.25ZM87.561 65.6V43.973H92.6235V65.6H87.561ZM99.268 65.6V43.973H104.087V47.1378C104.709 46.1851 105.532 45.4272 106.558 44.864C107.962 44.108 109.703 43.73 111.782 43.73V48.5495C111.566 48.4955 111.364 48.4685 111.175 48.4685C110.986 48.4415 110.797 48.428 110.608 48.428C108.691 48.428 107.165 48.995 106.031 50.129C104.897 51.236 104.33 52.8965 104.33 55.1105V65.6H99.268ZM125.428 65.8835C123.592 65.8835 121.972 65.546 120.568 64.871C119.164 64.169 118.07 63.116 117.287 61.712C116.504 60.281 116.113 58.4855 116.113 56.3255V43.973H121.175V55.637C121.175 57.581 121.607 59.039 122.471 60.011C123.362 60.956 124.618 61.4285 126.238 61.4285C127.426 61.4285 128.452 61.1855 129.316 60.6995C130.207 60.2135 130.895 59.4845 131.381 58.5125C131.894 57.5405 132.151 56.339 132.151 54.908V43.973H137.213V65.6H132.394V62.8572C131.759 63.6441 130.976 64.2884 130.045 64.79C128.641 65.519 127.102 65.8835 125.428 65.8835ZM143.842 65.6V43.973H148.661V47.1378C149.282 46.1851 150.106 45.4272 151.132 44.864C152.536 44.108 154.277 43.73 156.356 43.73V48.5495C156.14 48.4955 155.938 48.4685 155.749 48.4685C155.56 48.4415 155.371 48.428 155.182 48.428C153.265 48.428 151.739 48.995 150.605 50.129C149.471 51.236 148.904 52.8965 148.904 55.1105V65.6H143.842ZM170.254 73.7405C168.256 73.7405 166.299 73.4705 164.382 72.9305C162.492 72.4175 160.939 71.6615 159.724 70.6625L161.992 66.8555C162.937 67.6385 164.125 68.2595 165.556 68.7185C167.014 69.2045 168.486 69.4475 169.971 69.4475C172.347 69.4475 174.088 68.894 175.195 67.787C176.302 66.707 176.856 65.0735 176.856 62.8865V61.7455C176.193 62.4834 175.424 63.0798 174.547 63.5345C173.089 64.2635 171.442 64.628 169.606 64.628C167.554 64.628 165.691 64.196 164.017 63.332C162.37 62.441 161.061 61.2125 160.089 59.6465C159.144 58.0805 158.671 56.2445 158.671 54.1385C158.671 52.0595 159.144 50.237 160.089 48.671C161.061 47.105 162.37 45.89 164.017 45.026C165.691 44.162 167.554 43.73 169.606 43.73C171.442 43.73 173.089 44.0945 174.547 44.8235C175.534 45.3167 176.384 45.9954 177.099 46.8594V43.973H181.918V62.3195C181.918 66.2345 180.919 69.11 178.921 70.946C176.923 72.809 174.034 73.7405 170.254 73.7405ZM170.376 60.335C171.645 60.335 172.779 60.0785 173.778 59.5655C174.777 59.0255 175.546 58.2965 176.086 57.3785C176.653 56.4335 176.937 55.3535 176.937 54.1385C176.937 52.9235 176.653 51.857 176.086 50.939C175.546 49.994 174.777 49.2785 173.778 48.7925C172.779 48.2795 171.645 48.023 170.376 48.023C169.107 48.023 167.959 48.2795 166.933 48.7925C165.934 49.2785 165.151 49.994 164.584 50.939C164.044 51.857 163.774 52.9235 163.774 54.1385C163.774 55.3535 164.044 56.4335 164.584 57.3785C165.151 58.2965 165.934 59.0255 166.933 59.5655C167.959 60.0785 169.107 60.335 170.376 60.335ZM198.294 65.8835C196.08 65.8835 194.109 65.411 192.381 64.466C190.653 63.494 189.289 62.171 188.29 60.497C187.291 58.823 186.792 56.9195 186.792 54.7865C186.792 52.6265 187.291 50.723 188.29 49.076C189.289 47.402 190.653 46.0925 192.381 45.1475C194.109 44.2025 196.08 43.73 198.294 43.73C200.535 43.73 202.519 44.2025 204.247 45.1475C206.002 46.0925 207.366 47.3885 208.338 49.0355C209.337 50.6825 209.836 52.5995 209.836 54.7865C209.836 56.9195 209.337 58.823 208.338 60.497C207.366 62.171 206.002 63.494 204.247 64.466C202.519 65.411 200.535 65.8835 198.294 65.8835ZM198.294 61.55C199.536 61.55 200.643 61.28 201.615 60.74C202.587 60.2 203.343 59.417 203.883 58.391C204.45 57.365 204.733 56.1635 204.733 54.7865C204.733 53.3825 204.45 52.181 203.883 51.182C203.343 50.156 202.587 49.373 201.615 48.833C200.643 48.293 199.549 48.023 198.334 48.023C197.092 48.023 195.985 48.293 195.013 48.833C194.068 49.373 193.312 50.156 192.745 51.182C192.178 52.181 191.895 53.3825 191.895 54.7865C191.895 56.1635 192.178 57.365 192.745 58.391C193.312 59.417 194.068 60.2 195.013 60.74C195.985 61.28 197.079 61.55 198.294 61.55ZM0.488 38.6H22.488C37.952 38.6 50.488 51.136 50.488 66.6H28.488C13.024 66.6 0.488 54.064 0.488 38.6ZM114.488 4.6C106.756 4.6 100.488 10.868 100.488 18.6C100.488 26.332 106.756 32.6 114.488 32.6H182.488C197.952 32.6 210.488 20.064 210.488 4.6H114.488Z" fill="#4299EB"/>
</svg>
