<svg width="211" height="74" viewBox="0 0 211 74" fill="none" xmlns="http://www.w3.org/2000/svg">
<mask id="path-1-inside-1_197_7" fill="white">
<path fill-rule="evenodd" clip-rule="evenodd" d="M0 33.6V0H5.136L23.664 22.7485V0H29.856V33.6H24.72L6.192 10.8515V33.6H0ZM50.3314 33.936C47.4834 33.936 44.9874 33.376 42.8434 32.256C40.7314 31.104 39.0834 29.536 37.8994 27.552C36.7474 25.568 36.1714 23.312 36.1714 20.784C36.1714 18.224 36.7314 15.968 37.8514 14.016C39.0034 12.032 40.5714 10.48 42.5554 9.36C44.5714 8.24 46.8594 7.68 49.4194 7.68C51.9154 7.68 54.1394 8.224 56.0914 9.312C58.0434 10.4 59.5794 11.936 60.6994 13.92C61.8194 15.904 62.3794 18.24 62.3794 20.928C62.3794 21.184 62.3634 21.472 62.3314 21.792C62.3314 22.112 62.3154 22.416 62.2834 22.704H42.1718C42.3359 23.5899 42.6397 24.4059 43.0834 25.152C43.7874 26.336 44.7794 27.248 46.0594 27.888C47.3394 28.528 48.8114 28.848 50.4754 28.848C51.9154 28.848 53.2114 28.624 54.3634 28.176C55.5154 27.728 56.5394 27.024 57.4354 26.064L60.6514 29.76C59.4994 31.104 58.0434 32.144 56.2834 32.88C54.5554 33.584 52.5714 33.936 50.3314 33.936ZM42.9394 16.128C42.5232 16.8946 42.2495 17.7586 42.1182 18.72H56.705C56.5885 17.752 56.3039 16.872 55.8514 16.08C55.2114 14.96 54.3314 14.08 53.2114 13.44C52.1234 12.8 50.8594 12.48 49.4194 12.48C47.9474 12.48 46.6514 12.8 45.5314 13.44C44.4434 14.08 43.5794 14.976 42.9394 16.128ZM78.9908 33.936C76.8148 33.936 74.8948 33.536 73.2308 32.736C71.5668 31.904 70.2708 30.656 69.3428 28.992C68.4147 27.296 67.9508 25.168 67.9508 22.608V7.968H73.9508V21.792C73.9508 24.096 74.4627 25.824 75.4867 26.976C76.5427 28.096 78.0307 28.656 79.9508 28.656C81.3588 28.656 82.5748 28.368 83.5987 27.792C84.6547 27.216 85.4707 26.352 86.0468 25.2C86.6547 24.048 86.9587 22.624 86.9587 20.928V7.968H92.9587V33.6H87.2468V30.3493C86.4949 31.2819 85.5669 32.0455 84.4628 32.64C82.7988 33.504 80.9747 33.936 78.9908 33.936ZM100.815 7.968H106.527V11.7189C107.263 10.5898 108.239 9.69146 109.455 9.024C111.119 8.128 113.183 7.68 115.647 7.68V13.392C115.391 13.328 115.151 13.296 114.927 13.296C114.703 13.264 114.479 13.248 114.255 13.248C111.983 13.248 110.175 13.92 108.831 15.264C107.487 16.576 106.815 18.544 106.815 21.168V33.6H100.815V7.968ZM132.022 33.936C129.398 33.936 127.062 33.376 125.014 32.256C122.966 31.104 121.35 29.536 120.166 27.552C118.982 25.568 118.39 23.312 118.39 20.784C118.39 18.224 118.982 15.968 120.166 14.016C121.35 12.032 122.966 10.48 125.014 9.36C127.062 8.24 129.398 7.68 132.022 7.68C134.678 7.68 137.03 8.24 139.078 9.36C141.158 10.48 142.774 12.016 143.926 13.968C145.11 15.92 145.702 18.192 145.702 20.784C145.702 23.312 145.11 25.568 143.926 27.552C142.774 29.536 141.158 31.104 139.078 32.256C137.03 33.376 134.678 33.936 132.022 33.936ZM132.022 28.8C133.494 28.8 134.806 28.48 135.958 27.84C137.11 27.2 138.006 26.272 138.646 25.056C139.318 23.84 139.654 22.416 139.654 20.784C139.654 19.12 139.318 17.696 138.646 16.512C138.006 15.296 137.11 14.368 135.958 13.728C134.806 13.088 133.51 12.768 132.07 12.768C130.598 12.768 129.286 13.088 128.134 13.728C127.014 14.368 126.118 15.296 125.446 16.512C124.774 17.696 124.438 19.12 124.438 20.784C124.438 22.416 124.774 23.84 125.446 25.056C126.118 26.272 127.014 27.2 128.134 27.84C129.286 28.48 130.582 28.8 132.022 28.8ZM75.1854 37.25H80.4504V65.6H75.1854V53.45H60.5244V65.6H55.2594V37.25H60.5244V48.9545H75.1854V37.25ZM87.561 65.6V43.973H92.6235V65.6H87.561ZM90.1125 40.409C89.1675 40.409 88.3845 40.112 87.7635 39.518C87.1694 38.924 86.8725 38.2085 86.8725 37.3715C86.8725 36.5075 87.1694 35.792 87.7635 35.225C88.3845 34.631 89.1675 34.334 90.1125 34.334C91.0575 34.334 91.827 34.6175 92.421 35.1845C93.042 35.7245 93.3525 36.413 93.3525 37.25C93.3525 38.141 93.0555 38.897 92.4614 39.518C91.8675 40.112 91.0845 40.409 90.1125 40.409ZM99.268 65.6V43.973H104.087V47.1378C104.709 46.1851 105.532 45.4272 106.558 44.864C107.962 44.108 109.703 43.73 111.782 43.73V48.5495C111.566 48.4955 111.364 48.4685 111.175 48.4685C110.986 48.4415 110.797 48.428 110.608 48.428C108.691 48.428 107.165 48.995 106.031 50.129C104.897 51.236 104.33 52.8965 104.33 55.1105V65.6H99.268ZM125.428 65.8835C123.592 65.8835 121.972 65.546 120.568 64.871C119.164 64.169 118.07 63.116 117.287 61.712C116.504 60.281 116.113 58.4855 116.113 56.3255V43.973H121.175V55.637C121.175 57.581 121.607 59.039 122.471 60.011C123.362 60.956 124.618 61.4285 126.238 61.4285C127.426 61.4285 128.452 61.1855 129.316 60.6995C130.207 60.2135 130.895 59.4845 131.381 58.5125C131.894 57.5405 132.151 56.339 132.151 54.908V43.973H137.213V65.6H132.394V62.8572C131.759 63.6441 130.976 64.2884 130.045 64.79C128.641 65.519 127.102 65.8835 125.428 65.8835ZM143.842 65.6V43.973H148.661V47.1378C149.282 46.1851 150.106 45.4272 151.132 44.864C152.536 44.108 154.277 43.73 156.356 43.73V48.5495C156.14 48.4955 155.938 48.4685 155.749 48.4685C155.56 48.4415 155.371 48.428 155.182 48.428C153.265 48.428 151.739 48.995 150.605 50.129C149.471 51.236 148.904 52.8965 148.904 55.1105V65.6H143.842ZM170.254 73.7405C168.256 73.7405 166.299 73.4705 164.382 72.9305C162.492 72.4175 160.939 71.6615 159.724 70.6625L161.992 66.8555C162.937 67.6385 164.125 68.2595 165.556 68.7185C167.014 69.2045 168.486 69.4475 169.971 69.4475C172.347 69.4475 174.088 68.894 175.195 67.787C176.302 66.707 176.856 65.0735 176.856 62.8865V61.7455C176.193 62.4834 175.424 63.0798 174.547 63.5345C173.089 64.2635 171.442 64.628 169.606 64.628C167.554 64.628 165.691 64.196 164.017 63.332C162.37 62.441 161.061 61.2125 160.089 59.6465C159.144 58.0805 158.671 56.2445 158.671 54.1385C158.671 52.0595 159.144 50.237 160.089 48.671C161.061 47.105 162.37 45.89 164.017 45.026C165.691 44.162 167.554 43.73 169.606 43.73C171.442 43.73 173.089 44.0945 174.547 44.8235C175.534 45.3167 176.384 45.9954 177.099 46.8594V43.973H181.918V62.3195C181.918 66.2345 180.919 69.11 178.921 70.946C176.923 72.809 174.034 73.7405 170.254 73.7405ZM170.376 60.335C171.645 60.335 172.779 60.0785 173.778 59.5655C174.777 59.0255 175.546 58.2965 176.086 57.3785C176.653 56.4335 176.937 55.3535 176.937 54.1385C176.937 52.9235 176.653 51.857 176.086 50.939C175.546 49.994 174.777 49.2785 173.778 48.7925C172.779 48.2795 171.645 48.023 170.376 48.023C169.107 48.023 167.959 48.2795 166.933 48.7925C165.934 49.2785 165.151 49.994 164.584 50.939C164.044 51.857 163.774 52.9235 163.774 54.1385C163.774 55.3535 164.044 56.4335 164.584 57.3785C165.151 58.2965 165.934 59.0255 166.933 59.5655C167.959 60.0785 169.107 60.335 170.376 60.335ZM198.294 65.8835C196.08 65.8835 194.109 65.411 192.381 64.466C190.653 63.494 189.289 62.171 188.29 60.497C187.291 58.823 186.792 56.9195 186.792 54.7865C186.792 52.6265 187.291 50.723 188.29 49.076C189.289 47.402 190.653 46.0925 192.381 45.1475C194.109 44.2025 196.08 43.73 198.294 43.73C200.535 43.73 202.519 44.2025 204.247 45.1475C206.002 46.0925 207.366 47.3885 208.338 49.0355C209.337 50.6825 209.836 52.5995 209.836 54.7865C209.836 56.9195 209.337 58.823 208.338 60.497C207.366 62.171 206.002 63.494 204.247 64.466C202.519 65.411 200.535 65.8835 198.294 65.8835ZM198.294 61.55C199.536 61.55 200.643 61.28 201.615 60.74C202.587 60.2 203.343 59.417 203.883 58.391C204.45 57.365 204.733 56.1635 204.733 54.7865C204.733 53.3825 204.45 52.181 203.883 51.182C203.343 50.156 202.587 49.373 201.615 48.833C200.643 48.293 199.549 48.023 198.334 48.023C197.092 48.023 195.985 48.293 195.013 48.833C194.068 49.373 193.312 50.156 192.745 51.182C192.178 52.181 191.895 53.3825 191.895 54.7865C191.895 56.1635 192.178 57.365 192.745 58.391C193.312 59.417 194.068 60.2 195.013 60.74C195.985 61.28 197.079 61.55 198.294 61.55ZM0.488 38.6H22.488C37.952 38.6 50.488 51.136 50.488 66.6H28.488C13.024 66.6 0.488 54.064 0.488 38.6ZM164.488 4.6C156.756 4.6 150.488 10.868 150.488 18.6C150.488 26.332 156.756 32.6 164.488 32.6H182.488C197.952 32.6 210.488 20.064 210.488 4.6H164.488Z"/>
</mask>
<path fill-rule="evenodd" clip-rule="evenodd" d="M0 33.6V0H5.136L23.664 22.7485V0H29.856V33.6H24.72L6.192 10.8515V33.6H0ZM50.3314 33.936C47.4834 33.936 44.9874 33.376 42.8434 32.256C40.7314 31.104 39.0834 29.536 37.8994 27.552C36.7474 25.568 36.1714 23.312 36.1714 20.784C36.1714 18.224 36.7314 15.968 37.8514 14.016C39.0034 12.032 40.5714 10.48 42.5554 9.36C44.5714 8.24 46.8594 7.68 49.4194 7.68C51.9154 7.68 54.1394 8.224 56.0914 9.312C58.0434 10.4 59.5794 11.936 60.6994 13.92C61.8194 15.904 62.3794 18.24 62.3794 20.928C62.3794 21.184 62.3634 21.472 62.3314 21.792C62.3314 22.112 62.3154 22.416 62.2834 22.704H42.1718C42.3359 23.5899 42.6397 24.4059 43.0834 25.152C43.7874 26.336 44.7794 27.248 46.0594 27.888C47.3394 28.528 48.8114 28.848 50.4754 28.848C51.9154 28.848 53.2114 28.624 54.3634 28.176C55.5154 27.728 56.5394 27.024 57.4354 26.064L60.6514 29.76C59.4994 31.104 58.0434 32.144 56.2834 32.88C54.5554 33.584 52.5714 33.936 50.3314 33.936ZM42.9394 16.128C42.5232 16.8946 42.2495 17.7586 42.1182 18.72H56.705C56.5885 17.752 56.3039 16.872 55.8514 16.08C55.2114 14.96 54.3314 14.08 53.2114 13.44C52.1234 12.8 50.8594 12.48 49.4194 12.48C47.9474 12.48 46.6514 12.8 45.5314 13.44C44.4434 14.08 43.5794 14.976 42.9394 16.128ZM78.9908 33.936C76.8148 33.936 74.8948 33.536 73.2308 32.736C71.5668 31.904 70.2708 30.656 69.3428 28.992C68.4147 27.296 67.9508 25.168 67.9508 22.608V7.968H73.9508V21.792C73.9508 24.096 74.4627 25.824 75.4867 26.976C76.5427 28.096 78.0307 28.656 79.9508 28.656C81.3588 28.656 82.5748 28.368 83.5987 27.792C84.6547 27.216 85.4707 26.352 86.0468 25.2C86.6547 24.048 86.9587 22.624 86.9587 20.928V7.968H92.9587V33.6H87.2468V30.3493C86.4949 31.2819 85.5669 32.0455 84.4628 32.64C82.7988 33.504 80.9747 33.936 78.9908 33.936ZM100.815 7.968H106.527V11.7189C107.263 10.5898 108.239 9.69146 109.455 9.024C111.119 8.128 113.183 7.68 115.647 7.68V13.392C115.391 13.328 115.151 13.296 114.927 13.296C114.703 13.264 114.479 13.248 114.255 13.248C111.983 13.248 110.175 13.92 108.831 15.264C107.487 16.576 106.815 18.544 106.815 21.168V33.6H100.815V7.968ZM132.022 33.936C129.398 33.936 127.062 33.376 125.014 32.256C122.966 31.104 121.35 29.536 120.166 27.552C118.982 25.568 118.39 23.312 118.39 20.784C118.39 18.224 118.982 15.968 120.166 14.016C121.35 12.032 122.966 10.48 125.014 9.36C127.062 8.24 129.398 7.68 132.022 7.68C134.678 7.68 137.03 8.24 139.078 9.36C141.158 10.48 142.774 12.016 143.926 13.968C145.11 15.92 145.702 18.192 145.702 20.784C145.702 23.312 145.11 25.568 143.926 27.552C142.774 29.536 141.158 31.104 139.078 32.256C137.03 33.376 134.678 33.936 132.022 33.936ZM132.022 28.8C133.494 28.8 134.806 28.48 135.958 27.84C137.11 27.2 138.006 26.272 138.646 25.056C139.318 23.84 139.654 22.416 139.654 20.784C139.654 19.12 139.318 17.696 138.646 16.512C138.006 15.296 137.11 14.368 135.958 13.728C134.806 13.088 133.51 12.768 132.07 12.768C130.598 12.768 129.286 13.088 128.134 13.728C127.014 14.368 126.118 15.296 125.446 16.512C124.774 17.696 124.438 19.12 124.438 20.784C124.438 22.416 124.774 23.84 125.446 25.056C126.118 26.272 127.014 27.2 128.134 27.84C129.286 28.48 130.582 28.8 132.022 28.8ZM75.1854 37.25H80.4504V65.6H75.1854V53.45H60.5244V65.6H55.2594V37.25H60.5244V48.9545H75.1854V37.25ZM87.561 65.6V43.973H92.6235V65.6H87.561ZM90.1125 40.409C89.1675 40.409 88.3845 40.112 87.7635 39.518C87.1694 38.924 86.8725 38.2085 86.8725 37.3715C86.8725 36.5075 87.1694 35.792 87.7635 35.225C88.3845 34.631 89.1675 34.334 90.1125 34.334C91.0575 34.334 91.827 34.6175 92.421 35.1845C93.042 35.7245 93.3525 36.413 93.3525 37.25C93.3525 38.141 93.0555 38.897 92.4614 39.518C91.8675 40.112 91.0845 40.409 90.1125 40.409ZM99.268 65.6V43.973H104.087V47.1378C104.709 46.1851 105.532 45.4272 106.558 44.864C107.962 44.108 109.703 43.73 111.782 43.73V48.5495C111.566 48.4955 111.364 48.4685 111.175 48.4685C110.986 48.4415 110.797 48.428 110.608 48.428C108.691 48.428 107.165 48.995 106.031 50.129C104.897 51.236 104.33 52.8965 104.33 55.1105V65.6H99.268ZM125.428 65.8835C123.592 65.8835 121.972 65.546 120.568 64.871C119.164 64.169 118.07 63.116 117.287 61.712C116.504 60.281 116.113 58.4855 116.113 56.3255V43.973H121.175V55.637C121.175 57.581 121.607 59.039 122.471 60.011C123.362 60.956 124.618 61.4285 126.238 61.4285C127.426 61.4285 128.452 61.1855 129.316 60.6995C130.207 60.2135 130.895 59.4845 131.381 58.5125C131.894 57.5405 132.151 56.339 132.151 54.908V43.973H137.213V65.6H132.394V62.8572C131.759 63.6441 130.976 64.2884 130.045 64.79C128.641 65.519 127.102 65.8835 125.428 65.8835ZM143.842 65.6V43.973H148.661V47.1378C149.282 46.1851 150.106 45.4272 151.132 44.864C152.536 44.108 154.277 43.73 156.356 43.73V48.5495C156.14 48.4955 155.938 48.4685 155.749 48.4685C155.56 48.4415 155.371 48.428 155.182 48.428C153.265 48.428 151.739 48.995 150.605 50.129C149.471 51.236 148.904 52.8965 148.904 55.1105V65.6H143.842ZM170.254 73.7405C168.256 73.7405 166.299 73.4705 164.382 72.9305C162.492 72.4175 160.939 71.6615 159.724 70.6625L161.992 66.8555C162.937 67.6385 164.125 68.2595 165.556 68.7185C167.014 69.2045 168.486 69.4475 169.971 69.4475C172.347 69.4475 174.088 68.894 175.195 67.787C176.302 66.707 176.856 65.0735 176.856 62.8865V61.7455C176.193 62.4834 175.424 63.0798 174.547 63.5345C173.089 64.2635 171.442 64.628 169.606 64.628C167.554 64.628 165.691 64.196 164.017 63.332C162.37 62.441 161.061 61.2125 160.089 59.6465C159.144 58.0805 158.671 56.2445 158.671 54.1385C158.671 52.0595 159.144 50.237 160.089 48.671C161.061 47.105 162.37 45.89 164.017 45.026C165.691 44.162 167.554 43.73 169.606 43.73C171.442 43.73 173.089 44.0945 174.547 44.8235C175.534 45.3167 176.384 45.9954 177.099 46.8594V43.973H181.918V62.3195C181.918 66.2345 180.919 69.11 178.921 70.946C176.923 72.809 174.034 73.7405 170.254 73.7405ZM170.376 60.335C171.645 60.335 172.779 60.0785 173.778 59.5655C174.777 59.0255 175.546 58.2965 176.086 57.3785C176.653 56.4335 176.937 55.3535 176.937 54.1385C176.937 52.9235 176.653 51.857 176.086 50.939C175.546 49.994 174.777 49.2785 173.778 48.7925C172.779 48.2795 171.645 48.023 170.376 48.023C169.107 48.023 167.959 48.2795 166.933 48.7925C165.934 49.2785 165.151 49.994 164.584 50.939C164.044 51.857 163.774 52.9235 163.774 54.1385C163.774 55.3535 164.044 56.4335 164.584 57.3785C165.151 58.2965 165.934 59.0255 166.933 59.5655C167.959 60.0785 169.107 60.335 170.376 60.335ZM198.294 65.8835C196.08 65.8835 194.109 65.411 192.381 64.466C190.653 63.494 189.289 62.171 188.29 60.497C187.291 58.823 186.792 56.9195 186.792 54.7865C186.792 52.6265 187.291 50.723 188.29 49.076C189.289 47.402 190.653 46.0925 192.381 45.1475C194.109 44.2025 196.08 43.73 198.294 43.73C200.535 43.73 202.519 44.2025 204.247 45.1475C206.002 46.0925 207.366 47.3885 208.338 49.0355C209.337 50.6825 209.836 52.5995 209.836 54.7865C209.836 56.9195 209.337 58.823 208.338 60.497C207.366 62.171 206.002 63.494 204.247 64.466C202.519 65.411 200.535 65.8835 198.294 65.8835ZM198.294 61.55C199.536 61.55 200.643 61.28 201.615 60.74C202.587 60.2 203.343 59.417 203.883 58.391C204.45 57.365 204.733 56.1635 204.733 54.7865C204.733 53.3825 204.45 52.181 203.883 51.182C203.343 50.156 202.587 49.373 201.615 48.833C200.643 48.293 199.549 48.023 198.334 48.023C197.092 48.023 195.985 48.293 195.013 48.833C194.068 49.373 193.312 50.156 192.745 51.182C192.178 52.181 191.895 53.3825 191.895 54.7865C191.895 56.1635 192.178 57.365 192.745 58.391C193.312 59.417 194.068 60.2 195.013 60.74C195.985 61.28 197.079 61.55 198.294 61.55ZM0.488 38.6H22.488C37.952 38.6 50.488 51.136 50.488 66.6H28.488C13.024 66.6 0.488 54.064 0.488 38.6ZM164.488 4.6C156.756 4.6 150.488 10.868 150.488 18.6C150.488 26.332 156.756 32.6 164.488 32.6H182.488C197.952 32.6 210.488 20.064 210.488 4.6H164.488Z" fill="#4299EB"/>
<path d="M0 0V-1H-1V0H0ZM0 33.6H-1V34.6H0V33.6ZM5.136 0L5.91137 -0.631513L5.61124 -1H5.136V0ZM23.664 22.7485L22.8886 23.38L24.664 25.5598V22.7485H23.664ZM23.664 0V-1H22.664V0H23.664ZM29.856 0H30.856V-1H29.856V0ZM29.856 33.6V34.6H30.856V33.6H29.856ZM24.72 33.6L23.9446 34.2315L24.2448 34.6H24.72V33.6ZM6.192 10.8515L6.96737 10.22L5.192 8.04021V10.8515H6.192ZM6.192 33.6V34.6H7.192V33.6H6.192ZM42.8434 32.256L42.3645 33.1339L42.3724 33.1382L42.3804 33.1423L42.8434 32.256ZM37.8994 27.552L37.0345 28.0542L37.0407 28.0645L37.8994 27.552ZM37.8514 14.016L36.9866 13.5139L36.984 13.5183L37.8514 14.016ZM42.5554 9.36L42.0697 8.48583L42.0638 8.48918L42.5554 9.36ZM56.0914 9.312L56.5782 8.43852L56.5782 8.43852L56.0914 9.312ZM62.3314 21.792L61.3363 21.6925L61.3314 21.7421V21.792H62.3314ZM62.2834 22.704V23.704H63.1784L63.2773 22.8144L62.2834 22.704ZM42.1718 22.704V21.704H40.9696L41.1885 22.8861L42.1718 22.704ZM43.0834 25.152L42.2238 25.6631L42.2238 25.6631L43.0834 25.152ZM54.3634 28.176L54.7258 29.108L54.7258 29.108L54.3634 28.176ZM57.4354 26.064L58.1898 25.4076L57.4614 24.5705L56.7043 25.3817L57.4354 26.064ZM60.6514 29.76L61.4106 30.4108L61.9727 29.7551L61.4058 29.1036L60.6514 29.76ZM56.2834 32.88L56.6607 33.8061L56.6692 33.8026L56.2834 32.88ZM42.1182 18.72L41.1274 18.5847L40.9723 19.72H42.1182V18.72ZM42.9394 16.128L42.0652 15.6423L42.0605 15.6509L42.9394 16.128ZM56.705 18.72V19.72H57.8326L57.6979 18.6005L56.705 18.72ZM55.8514 16.08L54.9831 16.5761L54.9831 16.5761L55.8514 16.08ZM53.2114 13.44L52.7043 14.302L52.7152 14.3082L53.2114 13.44ZM45.5314 13.44L45.0352 12.5717L45.0244 12.5781L45.5314 13.44ZM73.2308 32.736L72.7835 33.6304L72.7905 33.6339L72.7975 33.6373L73.2308 32.736ZM69.3428 28.992L68.4655 29.472L68.4694 29.4791L69.3428 28.992ZM67.9508 7.968V6.968H66.9508V7.968H67.9508ZM73.9508 7.968H74.9508V6.968H73.9508V7.968ZM75.4867 26.976L74.7393 27.6404L74.7491 27.6513L74.7592 27.662L75.4867 26.976ZM83.5987 27.792L83.1199 26.914L83.1085 26.9204L83.5987 27.792ZM86.0468 25.2L85.1624 24.7332L85.1572 24.743L85.1523 24.7528L86.0468 25.2ZM86.9587 7.968V6.968H85.9587V7.968H86.9587ZM92.9587 7.968H93.9587V6.968H92.9587V7.968ZM92.9587 33.6V34.6H93.9587V33.6H92.9587ZM87.2468 33.6H86.2468V34.6H87.2468V33.6ZM87.2468 30.3493H88.2468V27.5156L86.4682 29.7216L87.2468 30.3493ZM84.4628 32.64L84.9236 33.5275L84.9302 33.524L84.9369 33.5205L84.4628 32.64ZM106.527 7.968H107.527V6.968H106.527V7.968ZM100.815 7.968V6.968H99.8146V7.968H100.815ZM106.527 11.7189H105.527V15.0833L107.364 12.2651L106.527 11.7189ZM109.455 9.024L108.981 8.1435L108.973 8.14742L109.455 9.024ZM115.647 7.68H116.647V6.68H115.647V7.68ZM115.647 13.392L115.404 14.3621L116.647 14.6728V13.392H115.647ZM114.927 13.296L114.785 14.286L114.856 14.296H114.927V13.296ZM108.831 15.264L109.529 15.9796L109.538 15.9711L108.831 15.264ZM106.815 33.6V34.6H107.815V33.6H106.815ZM100.815 33.6H99.8146V34.6H100.815V33.6ZM125.014 32.256L124.524 33.1276L124.534 33.1334L125.014 32.256ZM120.166 27.552L121.025 27.0395L121.025 27.0395L120.166 27.552ZM120.166 14.016L121.021 14.5346L121.025 14.5285L120.166 14.016ZM125.014 9.36L124.534 8.48263L124.534 8.48263L125.014 9.36ZM139.078 9.36L138.598 10.2374L138.604 10.2405L139.078 9.36ZM143.926 13.968L143.065 14.4763L143.071 14.4866L143.926 13.968ZM143.926 27.552L143.067 27.0395L143.061 27.0499L143.926 27.552ZM139.078 32.256L139.558 33.1334L139.563 33.1308L139.078 32.256ZM135.958 27.84L135.472 26.9658L135.472 26.9658L135.958 27.84ZM138.646 25.056L137.771 24.5723L137.766 24.5812L137.761 24.5903L138.646 25.056ZM138.646 16.512L137.761 16.9777L137.769 16.9918L137.776 17.0056L138.646 16.512ZM135.958 13.728L135.472 14.6022L135.472 14.6022L135.958 13.728ZM128.134 13.728L127.648 12.8538L127.638 12.8598L128.134 13.728ZM125.446 16.512L126.316 17.0056L126.321 16.9957L125.446 16.512ZM125.446 25.056L124.571 25.5397L124.571 25.5397L125.446 25.056ZM128.134 27.84L127.638 28.7083L127.648 28.7142L128.134 27.84ZM80.4504 37.25H81.4504V36.25H80.4504V37.25ZM75.1854 37.25V36.25H74.1854V37.25H75.1854ZM80.4504 65.6V66.6H81.4504V65.6H80.4504ZM75.1854 65.6H74.1854V66.6H75.1854V65.6ZM75.1854 53.45H76.1854V52.45H75.1854V53.45ZM60.5244 53.45V52.45H59.5244V53.45H60.5244ZM60.5244 65.6V66.6H61.5244V65.6H60.5244ZM55.2594 65.6H54.2594V66.6H55.2594V65.6ZM55.2594 37.25V36.25H54.2594V37.25H55.2594ZM60.5244 37.25H61.5244V36.25H60.5244V37.25ZM60.5244 48.9545H59.5244V49.9545H60.5244V48.9545ZM75.1854 48.9545V49.9545H76.1854V48.9545H75.1854ZM87.561 43.973V42.973H86.561V43.973H87.561ZM87.561 65.6H86.561V66.6H87.561V65.6ZM92.6235 43.973H93.6235V42.973H92.6235V43.973ZM92.6235 65.6V66.6H93.6235V65.6H92.6235ZM87.7635 39.518L87.0563 40.2251L87.0642 40.233L87.0722 40.2406L87.7635 39.518ZM87.7635 35.225L88.4539 35.9484L88.4547 35.9476L87.7635 35.225ZM92.421 35.1845L91.7305 35.9079L91.7473 35.9239L91.7648 35.9391L92.421 35.1845ZM92.4614 39.518L93.1686 40.2251L93.1764 40.2173L93.1841 40.2092L92.4614 39.518ZM99.268 43.973V42.973H98.268V43.973H99.268ZM99.268 65.6H98.268V66.6H99.268V65.6ZM104.087 43.973H105.087V42.973H104.087V43.973ZM104.087 47.1378H103.087V50.5022L104.925 47.684L104.087 47.1378ZM106.558 44.864L106.084 43.9835L106.077 43.9874L106.558 44.864ZM111.782 43.73H112.782V42.73H111.782V43.73ZM111.782 48.5495L111.54 49.5196L112.782 49.8303V48.5495H111.782ZM111.175 48.4685L111.034 49.4585L111.104 49.4685H111.175V48.4685ZM106.031 50.129L106.73 50.8446L106.739 50.8361L106.031 50.129ZM104.33 65.6V66.6H105.33V65.6H104.33ZM120.568 64.871L120.121 65.7654L120.128 65.7689L120.135 65.7723L120.568 64.871ZM117.287 61.712L116.41 62.192L116.414 62.1991L117.287 61.712ZM116.113 43.973V42.973H115.113V43.973H116.113ZM121.175 43.973H122.175V42.973H121.175V43.973ZM122.471 60.011L121.724 60.6754L121.734 60.6863L121.744 60.697L122.471 60.011ZM129.316 60.6995L128.837 59.8215L128.826 59.8279L129.316 60.6995ZM131.381 58.5125L130.497 58.0457L130.492 58.0555L130.487 58.0653L131.381 58.5125ZM132.151 43.973V42.973H131.151V43.973H132.151ZM137.213 43.973H138.213V42.973H137.213V43.973ZM137.213 65.6V66.6H138.213V65.6H137.213ZM132.394 65.6H131.394V66.6H132.394V65.6ZM132.394 62.8572H133.394V60.0235L131.615 62.2296L132.394 62.8572ZM130.045 64.79L130.506 65.6775L130.512 65.674L130.519 65.6705L130.045 64.79ZM143.842 43.973V42.973H142.842V43.973H143.842ZM143.842 65.6H142.842V66.6H143.842V65.6ZM148.661 43.973H149.661V42.973H148.661V43.973ZM148.661 47.1378H147.661V50.5022L149.499 47.684L148.661 47.1378ZM151.132 44.864L150.658 43.9835L150.65 43.9874L151.132 44.864ZM156.356 43.73H157.356V42.73H156.356V43.73ZM156.356 48.5495L156.114 49.5196L157.356 49.8303V48.5495H156.356ZM155.749 48.4685L155.607 49.4585L155.678 49.4685H155.749V48.4685ZM150.605 50.129L151.304 50.8446L151.312 50.8361L150.605 50.129ZM148.904 65.6V66.6H149.904V65.6H148.904ZM164.382 72.9305L164.653 71.9679L164.643 71.9654L164.382 72.9305ZM159.724 70.6625L158.865 70.1507L158.425 70.8891L159.089 71.4349L159.724 70.6625ZM161.992 66.8555L162.63 66.0855L161.731 65.3403L161.133 66.3437L161.992 66.8555ZM165.556 68.7185L165.872 67.7698L165.861 67.7663L165.556 68.7185ZM175.195 67.787L174.497 67.0712L174.488 67.0799L175.195 67.787ZM176.856 61.7455H177.856V59.1333L176.111 61.0777L176.856 61.7455ZM174.547 63.5345L174.994 64.4289L175.001 64.4256L175.007 64.4223L174.547 63.5345ZM164.017 63.332L163.541 64.2115L163.55 64.2162L163.558 64.2206L164.017 63.332ZM160.089 59.6465L159.232 60.1632L159.239 60.1739L160.089 59.6465ZM160.089 48.671L159.239 48.1436L159.232 48.1543L160.089 48.671ZM164.017 45.026L163.558 44.1374L163.552 44.1405L164.017 45.026ZM174.547 44.8235L174.1 45.7179L174.1 45.7179L174.547 44.8235ZM177.099 46.8594L176.328 47.4967L178.099 49.6377V46.8594H177.099ZM177.099 43.973V42.973H176.099V43.973H177.099ZM181.918 43.973H182.918V42.973H181.918V43.973ZM178.921 70.946L178.244 70.2097L178.239 70.2146L178.921 70.946ZM173.778 59.5655L174.234 60.4551L174.244 60.4502L174.253 60.4452L173.778 59.5655ZM176.086 57.3785L175.229 56.864L175.224 56.8715L176.086 57.3785ZM176.086 50.939L175.218 51.4351L175.226 51.45L175.235 51.4645L176.086 50.939ZM173.778 48.7925L173.321 49.6821L173.33 49.687L173.34 49.6917L173.778 48.7925ZM166.933 48.7925L167.371 49.6918L167.38 49.6869L166.933 48.7925ZM164.584 50.939L163.727 50.4245L163.722 50.432L164.584 50.939ZM164.584 57.3785L163.716 57.8746L163.724 57.8895L163.733 57.904L164.584 57.3785ZM166.933 59.5655L166.458 60.4452L166.472 60.4528L166.486 60.4599L166.933 59.5655ZM192.381 64.466L191.89 65.3376L191.901 65.3434L192.381 64.466ZM188.29 60.497L189.149 59.9845L189.149 59.9845L188.29 60.497ZM188.29 49.076L189.145 49.5946L189.149 49.5885L188.29 49.076ZM192.381 45.1475L192.86 46.0249L192.86 46.0249L192.381 45.1475ZM204.247 45.1475L203.767 46.0249L203.773 46.028L204.247 45.1475ZM208.338 49.0355L207.476 49.5438L207.483 49.5541L208.338 49.0355ZM208.338 60.497L207.479 59.9845L207.473 59.9949L208.338 60.497ZM204.247 64.466L204.727 65.3434L204.732 65.3408L204.247 64.466ZM203.883 58.391L203.007 57.9073L203.002 57.9162L202.998 57.9253L203.883 58.391ZM203.883 51.182L202.998 51.6478L203.005 51.6618L203.013 51.6756L203.883 51.182ZM201.615 48.833L202.1 47.9588L202.1 47.9588L201.615 48.833ZM195.013 48.833L194.527 47.9588L194.517 47.9648L195.013 48.833ZM192.745 51.182L193.615 51.6756L193.62 51.6657L192.745 51.182ZM192.745 58.391L191.87 58.8747L191.87 58.8747L192.745 58.391ZM195.013 60.74L194.517 61.6083L194.528 61.6142L195.013 60.74ZM0.488 38.6V37.6H-0.512V38.6H0.488ZM50.488 66.6V67.6H51.488V66.6H50.488ZM210.488 4.6H211.488V3.6H210.488V4.6ZM-1 0V33.6H1V0H-1ZM5.136 -1H0V1H5.136V-1ZM24.4394 22.117L5.91137 -0.631513L4.36063 0.631513L22.8886 23.38L24.4394 22.117ZM22.664 0V22.7485H24.664V0H22.664ZM29.856 -1H23.664V1H29.856V-1ZM30.856 33.6V0H28.856V33.6H30.856ZM24.72 34.6H29.856V32.6H24.72V34.6ZM5.41663 11.483L23.9446 34.2315L25.4954 32.9685L6.96737 10.22L5.41663 11.483ZM7.192 33.6V10.8515H5.192V33.6H7.192ZM0 34.6H6.192V32.6H0V34.6ZM42.3804 33.1423C44.6906 34.3492 47.3507 34.936 50.3314 34.936V32.936C47.6161 32.936 45.2841 32.4028 43.3064 31.3697L42.3804 33.1423ZM37.0407 28.0645C38.3202 30.2085 40.1023 31.8999 42.3645 33.1339L43.3222 31.3781C41.3605 30.3081 39.8466 28.8635 38.7581 27.0395L37.0407 28.0645ZM35.1714 20.784C35.1714 23.4699 35.7852 25.9024 37.0346 28.0541L38.7642 27.0499C37.7096 25.2336 37.1714 23.1541 37.1714 20.784H35.1714ZM36.984 13.5183C35.7657 15.6417 35.1714 18.0738 35.1714 20.784H37.1714C37.1714 18.3742 37.697 16.2943 38.7187 14.5137L36.984 13.5183ZM42.0638 8.48918C39.9237 9.69731 38.2273 11.3771 36.9866 13.5139L38.7162 14.5181C39.7795 12.6869 41.2191 11.2627 43.047 10.2308L42.0638 8.48918ZM49.4194 6.68C46.7085 6.68 44.2501 7.27451 42.0697 8.48585L43.041 10.2342C44.8926 9.20549 47.0102 8.68 49.4194 8.68V6.68ZM56.5782 8.43852C54.4606 7.25819 52.0655 6.68 49.4194 6.68V8.68C51.7653 8.68 53.8182 9.18981 55.6045 10.1855L56.5782 8.43852ZM61.5702 13.4284C60.3616 11.2875 58.6942 9.6179 56.5782 8.43852L55.6045 10.1855C57.3926 11.1821 58.7971 12.5845 59.8286 14.4116L61.5702 13.4284ZM63.3794 20.928C63.3794 18.0989 62.789 15.5874 61.5702 13.4284L59.8286 14.4116C60.8498 16.2206 61.3794 18.3811 61.3794 20.928H63.3794ZM63.3264 21.8915C63.3609 21.5464 63.3794 21.2244 63.3794 20.928H61.3794C61.3794 21.1436 61.3658 21.3976 61.3363 21.6925L63.3264 21.8915ZM63.2773 22.8144C63.3137 22.4862 63.3314 22.1451 63.3314 21.792H61.3314C61.3314 22.0789 61.317 22.3458 61.2895 22.5936L63.2773 22.8144ZM42.1718 23.704H62.2834V21.704H42.1718V23.704ZM43.9429 24.6409C43.5619 24.0001 43.2985 23.2961 43.1551 22.5219L41.1885 22.8861C41.3733 23.8836 41.7176 24.8116 42.2238 25.6631L43.9429 24.6409ZM46.5066 26.9936C45.3909 26.4357 44.5451 25.6537 43.9429 24.6409L42.2238 25.6631C43.0297 27.0183 44.1679 28.0603 45.6122 28.7824L46.5066 26.9936ZM50.4754 27.848C48.9414 27.848 47.6268 27.5537 46.5066 26.9936L45.6122 28.7824C47.052 29.5023 48.6814 29.848 50.4754 29.848V27.848ZM54.0009 27.244C52.9819 27.6403 51.8115 27.848 50.4754 27.848V29.848C52.0192 29.848 53.4409 29.6077 54.7258 29.108L54.0009 27.244ZM56.7043 25.3817C55.9043 26.2388 55.0042 26.8538 54.0009 27.244L54.7258 29.108C56.0266 28.6022 57.1744 27.8092 58.1664 26.7463L56.7043 25.3817ZM61.4058 29.1036L58.1898 25.4076L56.681 26.7204L59.897 30.4164L61.4058 29.1036ZM56.6692 33.8026C58.5617 33.0111 60.1493 31.8824 61.4106 30.4108L59.8921 29.1092C58.8495 30.3257 57.525 31.2769 55.8976 31.9574L56.6692 33.8026ZM50.3314 34.936C52.6754 34.936 54.7914 34.5676 56.6607 33.8061L55.9061 31.9539C54.3193 32.6004 52.4674 32.936 50.3314 32.936V34.936ZM43.109 18.8553C43.2258 18.0002 43.4659 17.2542 43.8182 16.6051L42.0605 15.6509C41.5806 16.535 41.2732 17.5169 41.1274 18.5847L43.109 18.8553ZM56.705 17.72H42.1182V19.72H56.705V17.72ZM54.9831 16.5761C55.365 17.2444 55.6105 17.9949 55.7122 18.8395L57.6979 18.6005C57.5665 17.5091 57.2429 16.4996 56.7196 15.5839L54.9831 16.5761ZM52.7152 14.3082C53.6802 14.8597 54.4317 15.6112 54.9831 16.5761L56.7196 15.5839C55.991 14.3088 54.9825 13.3003 53.7075 12.5718L52.7152 14.3082ZM49.4194 13.48C50.7066 13.48 51.7907 13.7645 52.7044 14.3019L53.7184 12.5781C52.4561 11.8355 51.0121 11.48 49.4194 11.48V13.48ZM46.0275 14.3082C46.9761 13.7662 48.0965 13.48 49.4194 13.48V11.48C47.7983 11.48 46.3266 11.8338 45.0352 12.5718L46.0275 14.3082ZM43.8135 16.6136C44.3709 15.6104 45.1111 14.8474 46.0384 14.3019L45.0244 12.5781C43.7757 13.3126 42.7879 14.3416 42.0652 15.6424L43.8135 16.6136ZM72.7975 33.6373C74.6187 34.5129 76.6913 34.936 78.9908 34.936V32.936C76.9382 32.936 75.1708 32.5591 73.664 31.8348L72.7975 33.6373ZM68.4694 29.4791C69.4928 31.3141 70.9352 32.7063 72.7835 33.6304L73.678 31.8416C72.1983 31.1017 71.0487 29.9979 70.2161 28.5049L68.4694 29.4791ZM66.9508 22.608C66.9508 25.2833 67.4351 27.5888 68.4655 29.472L70.22 28.512C69.3944 27.0032 68.9508 25.0527 68.9508 22.608H66.9508ZM66.9508 7.968V22.608H68.9508V7.968H66.9508ZM73.9508 6.968H67.9508V8.968H73.9508V6.968ZM74.9508 21.792V7.968H72.9508V21.792H74.9508ZM76.2342 26.3116C75.4371 25.4149 74.9508 23.969 74.9508 21.792H72.9508C72.9508 24.223 73.4884 26.2331 74.7393 27.6404L76.2342 26.3116ZM79.9508 27.656C78.2335 27.656 77.0367 27.1622 76.2143 26.29L74.7592 27.662C76.0488 29.0298 77.828 29.656 79.9508 29.656V27.656ZM83.1085 26.9204C82.2613 27.397 81.2211 27.656 79.9508 27.656V29.656C81.4964 29.656 82.8882 29.339 84.089 28.6636L83.1085 26.9204ZM85.1523 24.7528C84.6608 25.7358 83.9837 26.4429 83.1199 26.9141L84.0776 28.6699C85.3258 27.9891 86.2807 26.9682 86.9412 25.6472L85.1523 24.7528ZM85.9587 20.928C85.9587 22.5089 85.675 23.762 85.1624 24.7332L86.9311 25.6668C87.6345 24.334 87.9587 22.7391 87.9587 20.928H85.9587ZM85.9587 7.968V20.928H87.9587V7.968H85.9587ZM92.9587 6.968H86.9587V8.968H92.9587V6.968ZM93.9587 33.6V7.968H91.9587V33.6H93.9587ZM87.2468 34.6H92.9587V32.6H87.2468V34.6ZM86.2468 30.3493V33.6H88.2468V30.3493H86.2468ZM84.9369 33.5205C86.1527 32.8658 87.1859 32.0181 88.0253 30.9769L86.4682 29.7216C85.8039 30.5457 84.981 31.2252 83.9887 31.7595L84.9369 33.5205ZM78.9908 34.936C81.1255 34.936 83.1089 34.4697 84.9236 33.5275L84.0019 31.7525C82.4886 32.5383 80.8239 32.936 78.9908 32.936V34.936ZM106.527 6.968H100.815V8.968H106.527V6.968ZM107.527 11.7189V7.968H105.527V11.7189H107.527ZM108.973 8.14742C107.618 8.89165 106.518 9.90173 105.689 11.1727L107.364 12.2651C108.008 11.2778 108.86 10.4913 109.936 9.90058L108.973 8.14742ZM115.647 6.68C113.066 6.68 110.828 7.14884 108.981 8.14353L109.929 9.90447C111.409 9.10716 113.299 8.68 115.647 8.68V6.68ZM116.647 13.392V7.68H114.647V13.392H116.647ZM114.927 14.296C115.056 14.296 115.214 14.3146 115.404 14.3621L115.889 12.4219C115.567 12.3414 115.245 12.296 114.927 12.296V14.296ZM114.255 14.248C114.431 14.248 114.608 14.2606 114.785 14.286L115.068 12.3061C114.798 12.2674 114.526 12.248 114.255 12.248V14.248ZM109.538 15.9711C110.658 14.8506 112.192 14.248 114.255 14.248V12.248C111.773 12.248 109.691 12.9894 108.124 14.5569L109.538 15.9711ZM107.815 21.168C107.815 18.7043 108.444 17.0389 109.529 15.9796L108.132 14.5484C106.529 16.1131 105.815 18.3837 105.815 21.168H107.815ZM107.815 33.6V21.168H105.815V33.6H107.815ZM100.815 34.6H106.815V32.6H100.815V34.6ZM99.8146 7.968V33.6H101.815V7.968H99.8146ZM124.534 33.1334C126.747 34.3434 129.252 34.936 132.022 34.936V32.936C129.545 32.936 127.377 32.4086 125.494 31.3786L124.534 33.1334ZM119.307 28.0645C120.582 30.2009 122.327 31.8916 124.524 33.1276L125.504 31.3844C123.606 30.3164 122.118 28.8711 121.025 27.0395L119.307 28.0645ZM117.39 20.784C117.39 23.4749 118.022 25.9111 119.307 28.0645L121.025 27.0395C119.942 25.2249 119.39 23.1491 119.39 20.784H117.39ZM119.311 13.4974C118.021 15.6241 117.39 18.0639 117.39 20.784H119.39C119.39 18.3841 119.943 16.3119 121.021 14.5346L119.311 13.4974ZM124.534 8.48263C122.331 9.68734 120.584 11.3646 119.307 13.5035L121.025 14.5285C122.116 12.6994 123.601 11.2727 125.494 10.2374L124.534 8.48263ZM132.022 6.68C129.252 6.68 126.747 7.2726 124.534 8.48263L125.494 10.2374C127.377 9.2074 129.545 8.68 132.022 8.68V6.68ZM139.558 8.48263C137.344 7.27164 134.822 6.68 132.022 6.68V8.68C134.534 8.68 136.717 9.20836 138.598 10.2374L139.558 8.48263ZM144.787 13.4598C143.539 11.3439 141.786 9.68216 139.552 8.47953L138.604 10.2405C140.531 11.2778 142.01 12.6881 143.065 14.4763L144.787 13.4598ZM146.702 20.784C146.702 18.0344 146.072 15.5781 144.781 13.4494L143.071 14.4866C144.148 16.2619 144.702 18.3496 144.702 20.784H146.702ZM144.785 28.0645C146.07 25.9111 146.702 23.4749 146.702 20.784H144.702C144.702 23.1491 144.15 25.2249 143.067 27.0395L144.785 28.0645ZM139.563 33.1308C141.795 31.8946 143.545 30.2003 144.791 28.0541L143.061 27.0499C142.003 28.8717 140.522 30.3134 138.594 31.3812L139.563 33.1308ZM132.022 34.936C134.822 34.936 137.344 34.3444 139.558 33.1334L138.598 31.3786C136.717 32.4076 134.534 32.936 132.022 32.936V34.936ZM135.472 26.9658C134.486 27.514 133.344 27.8 132.022 27.8V29.8C133.644 29.8 135.126 29.446 136.444 28.7142L135.472 26.9658ZM137.761 24.5903C137.208 25.642 136.447 26.4244 135.472 26.9658L136.444 28.7142C137.773 27.9756 138.805 26.9021 139.531 25.5217L137.761 24.5903ZM138.654 20.784C138.654 22.2765 138.348 23.5284 137.771 24.5723L139.521 25.5397C140.288 24.1516 140.654 22.5555 140.654 20.784H138.654ZM137.776 17.0056C138.346 18.009 138.654 19.2548 138.654 20.784H140.654C140.654 18.9852 140.29 17.383 139.516 16.0184L137.776 17.0056ZM135.472 14.6022C136.447 15.1436 137.208 15.9261 137.761 16.9777L139.531 16.0463C138.805 14.666 137.773 13.5924 136.444 12.8538L135.472 14.6022ZM132.07 13.768C133.356 13.768 134.483 14.0522 135.472 14.6022L136.444 12.8538C135.13 12.1238 133.664 11.768 132.07 11.768V13.768ZM128.62 14.6022C129.606 14.054 130.748 13.768 132.07 13.768V11.768C130.448 11.768 128.966 12.122 127.648 12.8538L128.62 14.6022ZM126.321 16.9957C126.912 15.9274 127.682 15.1382 128.63 14.5962L127.638 12.8598C126.346 13.5978 125.325 14.6646 124.571 16.0283L126.321 16.9957ZM125.438 20.784C125.438 19.2548 125.746 18.009 126.316 17.0056L124.576 16.0184C123.802 17.383 123.438 18.9852 123.438 20.784H125.438ZM126.321 24.5723C125.744 23.5284 125.438 22.2765 125.438 20.784H123.438C123.438 22.5555 123.804 24.1516 124.571 25.5397L126.321 24.5723ZM128.63 26.9718C127.682 26.4298 126.912 25.6406 126.321 24.5723L124.571 25.5397C125.325 26.9034 126.346 27.9702 127.638 28.7082L128.63 26.9718ZM132.022 27.8C130.736 27.8 129.61 27.5158 128.62 26.9658L127.648 28.7142C128.963 29.4442 130.428 29.8 132.022 29.8V27.8ZM80.4504 36.25H75.1854V38.25H80.4504V36.25ZM81.4504 65.6V37.25H79.4504V65.6H81.4504ZM75.1854 66.6H80.4504V64.6H75.1854V66.6ZM74.1854 53.45V65.6H76.1854V53.45H74.1854ZM60.5244 54.45H75.1854V52.45H60.5244V54.45ZM61.5244 65.6V53.45H59.5244V65.6H61.5244ZM55.2594 66.6H60.5244V64.6H55.2594V66.6ZM54.2594 37.25V65.6H56.2594V37.25H54.2594ZM60.5244 36.25H55.2594V38.25H60.5244V36.25ZM61.5244 48.9545V37.25H59.5244V48.9545H61.5244ZM75.1854 47.9545H60.5244V49.9545H75.1854V47.9545ZM74.1854 37.25V48.9545H76.1854V37.25H74.1854ZM86.561 43.973V65.6H88.561V43.973H86.561ZM92.6235 42.973H87.561V44.973H92.6235V42.973ZM93.6235 65.6V43.973H91.6235V65.6H93.6235ZM87.561 66.6H92.6235V64.6H87.561V66.6ZM87.0722 40.2406C87.8986 41.0311 88.9379 41.409 90.1125 41.409V39.409C89.397 39.409 88.8703 39.1929 88.4547 38.7954L87.0722 40.2406ZM85.8725 37.3715C85.8725 38.4748 86.2756 39.4443 87.0563 40.2251L88.4706 38.8109C88.0633 38.4037 87.8725 37.9422 87.8725 37.3715H85.8725ZM87.073 34.5016C86.27 35.2681 85.8725 36.2502 85.8725 37.3715H87.8725C87.8725 36.7648 88.0689 36.3159 88.4539 35.9484L87.073 34.5016ZM90.1125 33.334C88.9379 33.334 87.8986 33.7119 87.0722 34.5024L88.4547 35.9476C88.8703 35.5501 89.397 35.334 90.1125 35.334V33.334ZM93.1114 34.4611C92.3032 33.6897 91.2729 33.334 90.1125 33.334V35.334C90.842 35.334 91.3507 35.5453 91.7305 35.9079L93.1114 34.4611ZM94.3525 37.25C94.3525 36.1292 93.9208 35.1635 93.0771 34.4299L91.7648 35.9391C92.1631 36.2855 92.3525 36.6968 92.3525 37.25H94.3525ZM93.1841 40.2092C93.9632 39.3947 94.3525 38.388 94.3525 37.25H92.3525C92.3525 37.894 92.1477 38.3993 91.7388 38.8268L93.1841 40.2092ZM90.1125 41.409C91.3046 41.409 92.3574 41.0363 93.1686 40.2251L91.7543 38.8109C91.3775 39.1877 90.8643 39.409 90.1125 39.409V41.409ZM98.268 43.973V65.6H100.268V43.973H98.268ZM104.087 42.973H99.268V44.973H104.087V42.973ZM105.087 47.1378V43.973H103.087V47.1378H105.087ZM106.077 43.9874C104.911 44.6274 103.964 45.4971 103.25 46.5916L104.925 47.684C105.454 46.8731 106.153 46.227 107.039 45.7406L106.077 43.9874ZM111.782 42.73C109.587 42.73 107.671 43.1288 106.084 43.9835L107.032 45.7445C108.253 45.0872 109.82 44.73 111.782 44.73V42.73ZM112.782 48.5495V43.73H110.782V48.5495H112.782ZM111.175 49.4685C111.269 49.4685 111.39 49.4821 111.54 49.5196L112.025 47.5794C111.743 47.5089 111.459 47.4685 111.175 47.4685V49.4685ZM110.608 49.428C110.749 49.428 110.891 49.4381 111.034 49.4585L111.316 47.4786C111.081 47.4449 110.845 47.428 110.608 47.428V49.428ZM106.739 50.8361C107.649 49.9256 108.901 49.428 110.608 49.428V47.428C108.481 47.428 106.682 48.0644 105.324 49.4219L106.739 50.8361ZM105.33 55.1105C105.33 53.0568 105.855 51.6989 106.73 50.8446L105.333 49.4134C103.94 50.7731 103.33 52.7362 103.33 55.1105H105.33ZM105.33 65.6V55.1105H103.33V65.6H105.33ZM99.268 66.6H104.33V64.6H99.268V66.6ZM120.135 65.7723C121.696 66.5229 123.468 66.8835 125.428 66.8835V64.8835C123.715 64.8835 122.248 64.5691 121.001 63.9698L120.135 65.7723ZM116.414 62.1991C117.292 63.7741 118.532 64.9713 120.121 65.7654L121.015 63.9766C119.795 63.3667 118.848 62.4579 118.161 61.2249L116.414 62.1991ZM115.113 56.3255C115.113 58.6008 115.525 60.5738 116.41 62.192L118.165 61.232C117.484 59.9882 117.113 58.3702 117.113 56.3255H115.113ZM115.113 43.973V56.3255H117.113V43.973H115.113ZM121.175 42.973H116.113V44.973H121.175V42.973ZM122.175 55.637V43.973H120.175V55.637H122.175ZM123.219 59.3466C122.582 58.6299 122.175 57.454 122.175 55.637H120.175C120.175 57.708 120.633 59.4481 121.724 60.6754L123.219 59.3466ZM126.238 60.4285C124.821 60.4285 123.856 60.0222 123.199 59.325L121.744 60.697C122.868 61.8898 124.415 62.4285 126.238 62.4285V60.4285ZM128.826 59.8279C128.138 60.2145 127.288 60.4285 126.238 60.4285V62.4285C127.564 62.4285 128.765 62.1565 129.806 61.5711L128.826 59.8279ZM130.487 58.0653C130.085 58.8683 129.536 59.4404 128.837 59.8216L129.795 61.5774C130.878 60.9866 131.705 60.1007 132.276 58.9597L130.487 58.0653ZM131.151 54.908C131.151 56.2239 130.915 57.2545 130.497 58.0457L132.266 58.9793C132.874 57.8265 133.151 56.4541 133.151 54.908H131.151ZM131.151 43.973V54.908H133.151V43.973H131.151ZM137.213 42.973H132.151V44.973H137.213V42.973ZM138.213 65.6V43.973H136.213V65.6H138.213ZM132.394 66.6H137.213V64.6H132.394V66.6ZM131.394 62.8572V65.6H133.394V62.8572H131.394ZM130.519 65.6705C131.562 65.1087 132.45 64.3803 133.172 63.4848L131.615 62.2296C131.068 62.9079 130.391 63.4681 129.571 63.9095L130.519 65.6705ZM125.428 66.8835C127.253 66.8835 128.951 66.4847 130.506 65.6775L129.584 63.9025C128.331 64.5533 126.951 64.8835 125.428 64.8835V66.8835ZM142.842 43.973V65.6H144.842V43.973H142.842ZM148.661 42.973H143.842V44.973H148.661V42.973ZM149.661 47.1378V43.973H147.661V47.1378H149.661ZM150.65 43.9874C149.485 44.6274 148.537 45.4971 147.824 46.5916L149.499 47.684C150.028 46.8731 150.727 46.227 151.613 45.7406L150.65 43.9874ZM156.356 42.73C154.16 42.73 152.245 43.1288 150.658 43.9835L151.606 45.7445C152.827 45.0872 154.394 44.73 156.356 44.73V42.73ZM157.356 48.5495V43.73H155.356V48.5495H157.356ZM155.749 49.4685C155.843 49.4685 155.963 49.4821 156.114 49.5196L156.599 47.5794C156.317 47.5089 156.032 47.4685 155.749 47.4685V49.4685ZM155.182 49.428C155.323 49.428 155.465 49.4381 155.607 49.4585L155.89 47.4786C155.655 47.4449 155.419 47.428 155.182 47.428V49.428ZM151.312 50.8361C152.223 49.9256 153.474 49.428 155.182 49.428V47.428C153.055 47.428 151.256 48.0644 149.898 49.4219L151.312 50.8361ZM149.904 55.1105C149.904 53.0568 150.429 51.6989 151.304 50.8446L149.907 49.4134C148.514 50.7731 147.904 52.7362 147.904 55.1105H149.904ZM149.904 65.6V55.1105H147.904V65.6H149.904ZM143.842 66.6H148.904V64.6H143.842V66.6ZM164.11 73.893C166.116 74.458 168.165 74.7405 170.254 74.7405V72.7405C168.347 72.7405 166.481 72.483 164.653 71.968L164.11 73.893ZM159.089 71.4349C160.437 72.543 162.125 73.3543 164.12 73.8956L164.643 71.9654C162.858 71.4807 161.441 70.78 160.359 69.8901L159.089 71.4349ZM161.133 66.3437L158.865 70.1507L160.583 71.1743L162.851 67.3673L161.133 66.3437ZM165.861 67.7663C164.525 67.3378 163.457 66.7711 162.63 66.0855L161.354 67.6255C162.417 68.5059 163.725 69.1812 165.251 69.6707L165.861 67.7663ZM169.971 68.4475C168.597 68.4475 167.232 68.223 165.872 67.7698L165.24 69.6672C166.796 70.186 168.374 70.4475 169.971 70.4475V68.4475ZM174.488 67.0799C173.646 67.9216 172.216 68.4475 169.971 68.4475V70.4475C172.477 70.4475 174.53 69.8664 175.902 68.4941L174.488 67.0799ZM175.856 62.8865C175.856 64.9173 175.343 66.246 174.497 67.0712L175.893 68.5028C177.262 67.168 177.856 65.2297 177.856 62.8865H175.856ZM175.856 61.7455V62.8865H177.856V61.7455H175.856ZM175.007 64.4223C175.992 63.9118 176.858 63.2408 177.6 62.4132L176.111 61.0777C175.529 61.7261 174.856 62.2478 174.087 62.6467L175.007 64.4223ZM169.606 65.628C171.578 65.628 173.381 65.2357 174.994 64.4289L174.1 62.6401C172.797 63.2913 171.307 63.628 169.606 63.628V65.628ZM163.558 64.2206C165.387 65.1642 167.409 65.628 169.606 65.628V63.628C167.699 63.628 165.996 63.2278 164.476 62.4434L163.558 64.2206ZM159.239 60.1739C160.304 61.8903 161.744 63.2391 163.541 64.2115L164.493 62.4525C162.996 61.6429 161.817 60.5347 160.938 59.1191L159.239 60.1739ZM157.671 54.1385C157.671 56.3985 158.18 58.4189 159.232 60.1632L160.945 59.1298C160.107 57.7421 159.671 56.0905 159.671 54.1385H157.671ZM159.232 48.1543C158.181 49.8967 157.671 51.9028 157.671 54.1385H159.671C159.671 52.2162 160.106 50.5773 160.945 49.1877L159.232 48.1543ZM163.552 44.1405C161.749 45.0866 160.306 46.4246 159.239 48.1436L160.938 49.1984C161.815 47.7854 162.991 46.6934 164.482 45.9115L163.552 44.1405ZM169.606 42.73C167.409 42.73 165.387 43.1938 163.558 44.1374L164.476 45.9146C165.996 45.1302 167.699 44.73 169.606 44.73V42.73ZM174.994 43.9291C173.381 43.1223 171.578 42.73 169.606 42.73V44.73C171.307 44.73 172.797 45.0667 174.1 45.7179L174.994 43.9291ZM177.869 46.2221C177.067 45.2526 176.107 44.4856 174.994 43.9291L174.1 45.7179C174.96 46.1478 175.701 46.7381 176.328 47.4967L177.869 46.2221ZM176.099 43.973V46.8594H178.099V43.973H176.099ZM181.918 42.973H177.099V44.973H181.918V42.973ZM182.918 62.3195V43.973H180.918V62.3195H182.918ZM179.598 71.6823C181.879 69.5858 182.918 66.3884 182.918 62.3195H180.918C180.918 66.0806 179.959 68.6342 178.244 70.2097L179.598 71.6823ZM170.254 74.7405C174.189 74.7405 177.359 73.7699 179.603 71.6774L178.239 70.2146C176.487 71.8481 173.879 72.7405 170.254 72.7405V74.7405ZM173.321 58.6759C172.481 59.1074 171.507 59.335 170.376 59.335V61.335C171.783 61.335 173.077 61.0496 174.234 60.4551L173.321 58.6759ZM175.224 56.8715C174.783 57.6219 174.152 58.2265 173.302 58.6858L174.253 60.4452C175.401 59.8245 176.309 58.9711 176.948 57.8855L175.224 56.8715ZM175.937 54.1385C175.937 55.1914 175.693 56.09 175.229 56.864L176.944 57.893C177.613 56.777 177.937 55.5156 177.937 54.1385H175.937ZM175.235 51.4645C175.693 52.2053 175.937 53.0851 175.937 54.1385H177.937C177.937 52.7619 177.613 51.5087 176.937 50.4135L175.235 51.4645ZM173.34 49.6917C174.162 50.0917 174.78 50.6686 175.218 51.4351L176.954 50.4429C176.312 49.3194 175.391 48.4653 174.215 47.8933L173.34 49.6917ZM170.376 49.023C171.507 49.023 172.481 49.2506 173.321 49.6821L174.234 47.9029C173.077 47.3084 171.783 47.023 170.376 47.023V49.023ZM167.38 49.6869C168.253 49.2505 169.245 49.023 170.376 49.023V47.023C168.968 47.023 167.665 47.3085 166.486 47.8981L167.38 49.6869ZM165.442 51.4535C165.908 50.6762 166.544 50.0936 167.371 49.6917L166.496 47.8933C165.324 48.4634 164.394 49.3118 163.727 50.4245L165.442 51.4535ZM164.774 54.1385C164.774 53.0762 165.009 52.1897 165.446 51.446L163.722 50.432C163.08 51.5243 162.774 52.7708 162.774 54.1385H164.774ZM165.452 56.8824C165.008 56.1055 164.774 55.2002 164.774 54.1385H162.774C162.774 55.5068 163.08 56.7615 163.716 57.8746L165.452 56.8824ZM167.409 58.6858C166.555 58.2245 165.905 57.6142 165.435 56.853L163.733 57.904C164.397 58.9788 165.313 59.8265 166.458 60.4452L167.409 58.6858ZM170.376 59.335C169.245 59.335 168.253 59.1075 167.38 58.6711L166.486 60.4599C167.665 61.0495 168.968 61.335 170.376 61.335V59.335ZM191.901 65.3434C193.793 66.3784 195.933 66.8835 198.294 66.8835V64.8835C196.226 64.8835 194.424 64.4436 192.86 63.5886L191.901 65.3434ZM187.431 61.0095C188.521 62.8359 190.013 64.2816 191.89 65.3376L192.871 63.5944C191.292 62.7064 190.057 61.5061 189.149 59.9845L187.431 61.0095ZM185.792 54.7865C185.792 57.0824 186.331 59.1661 187.431 61.0095L189.149 59.9845C188.251 58.4799 187.792 56.7566 187.792 54.7865H185.792ZM187.435 48.5574C186.33 50.3791 185.792 52.4664 185.792 54.7865H187.792C187.792 52.7866 188.252 51.0669 189.145 49.5946L187.435 48.5574ZM191.901 44.2701C190.018 45.2998 188.523 46.7346 187.431 48.5635L189.149 49.5885C190.055 48.0694 191.287 46.8852 192.86 46.0249L191.901 44.2701ZM198.294 42.73C195.933 42.73 193.793 43.2351 191.901 44.2701L192.86 46.0249C194.424 45.1699 196.226 44.73 198.294 44.73V42.73ZM204.727 44.2701C202.833 43.2341 200.679 42.73 198.294 42.73V44.73C200.39 44.73 202.206 45.1709 203.767 46.0249L204.727 44.2701ZM209.199 48.5273C208.13 46.7164 206.63 45.2947 204.721 44.267L203.773 46.028C205.375 46.8903 206.601 48.0606 207.476 49.5438L209.199 48.5273ZM210.836 54.7865C210.836 52.4419 210.299 50.3406 209.193 48.5169L207.483 49.5541C208.374 51.0244 208.836 52.7571 208.836 54.7865H210.836ZM209.196 61.0095C210.296 59.1661 210.836 57.0824 210.836 54.7865H208.836C208.836 56.7566 208.377 58.4799 207.479 59.9845L209.196 61.0095ZM204.732 65.3408C206.639 64.2846 208.136 62.8353 209.202 60.9991L207.473 59.9949C206.595 61.5067 205.366 62.7034 203.763 63.5912L204.732 65.3408ZM198.294 66.8835C200.679 66.8835 202.833 66.3794 204.727 65.3434L203.767 63.5886C202.206 64.4426 200.39 64.8835 198.294 64.8835V66.8835ZM201.129 59.8658C200.322 60.314 199.386 60.55 198.294 60.55V62.55C199.685 62.55 200.963 62.246 202.1 61.6142L201.129 59.8658ZM202.998 57.9253C202.544 58.787 201.924 59.4244 201.129 59.8658L202.1 61.6142C203.25 60.9756 204.141 60.0471 204.768 58.8568L202.998 57.9253ZM203.733 54.7865C203.733 56.024 203.479 57.0534 203.007 57.9073L204.758 58.8747C205.42 57.6766 205.733 56.303 205.733 54.7865H203.733ZM203.013 51.6756C203.477 52.494 203.733 53.5173 203.733 54.7865H205.733C205.733 53.2477 205.422 51.868 204.752 50.6884L203.013 51.6756ZM201.129 49.7072C201.924 50.1486 202.544 50.7861 202.998 51.6478L204.768 50.7163C204.141 49.526 203.25 48.5974 202.1 47.9588L201.129 49.7072ZM198.334 49.023C199.395 49.023 200.319 49.2572 201.129 49.7072L202.1 47.9588C200.966 47.3288 199.703 47.023 198.334 47.023V49.023ZM195.499 49.7072C196.305 49.259 197.242 49.023 198.334 49.023V47.023C196.942 47.023 195.665 47.327 194.528 47.9588L195.499 49.7072ZM193.62 51.6657C194.106 50.7874 194.736 50.1432 195.509 49.7012L194.517 47.9648C193.401 48.6028 192.519 49.5246 191.87 50.6983L193.62 51.6657ZM192.895 54.7865C192.895 53.5173 193.15 52.494 193.615 51.6756L191.875 50.6884C191.206 51.868 190.895 53.2477 190.895 54.7865H192.895ZM193.62 57.9073C193.148 57.0534 192.895 56.024 192.895 54.7865H190.895C190.895 56.303 191.208 57.6766 191.87 58.8747L193.62 57.9073ZM195.509 59.8718C194.736 59.4298 194.106 58.7856 193.62 57.9073L191.87 58.8747C192.519 60.0484 193.401 60.9702 194.517 61.6082L195.509 59.8718ZM198.294 60.55C197.232 60.55 196.309 60.3158 195.499 59.8658L194.528 61.6142C195.662 62.2442 196.925 62.55 198.294 62.55V60.55ZM22.488 37.6H0.488V39.6H22.488V37.6ZM51.488 66.6C51.488 50.5837 38.5043 37.6 22.488 37.6V39.6C37.3997 39.6 49.488 51.6883 49.488 66.6H51.488ZM28.488 67.6H50.488V65.6H28.488V67.6ZM-0.512 38.6C-0.512 54.6163 12.4717 67.6 28.488 67.6V65.6C13.5763 65.6 1.488 53.5117 1.488 38.6H-0.512ZM151.488 18.6C151.488 11.4203 157.308 5.6 164.488 5.6V3.6C156.204 3.6 149.488 10.3157 149.488 18.6H151.488ZM164.488 31.6C157.308 31.6 151.488 25.7797 151.488 18.6H149.488C149.488 26.8843 156.204 33.6 164.488 33.6V31.6ZM182.488 31.6H164.488V33.6H182.488V31.6ZM209.488 4.6C209.488 19.5117 197.4 31.6 182.488 31.6V33.6C198.504 33.6 211.488 20.6163 211.488 4.6H209.488ZM164.488 5.6H210.488V3.6H164.488V5.6Z" fill="#4299EB" mask="url(#path-1-inside-1_197_7)"/>
</svg>
